<svg id="Ebene_1" data-name="Ebene 1" xmlns="http://www.w3.org/2000/svg" viewBox="0 0 2225.23 184.08"><defs><style>.cls-1{fill:#46469e;}.cls-2{fill:#c30f08;}</style></defs><title>envelope</title><polygon class="cls-1" points="172.25 -0.01 65.96 184.09 0 184.09 0 129.13 74.56 -0.01 172.25 -0.01"/><polygon class="cls-2" points="368.5 -0.01 262.21 184.09 164.54 184.09 270.82 -0.01 368.5 -0.01"/><polygon class="cls-1" points="569.44 -0.01 463.15 184.09 365.46 184.09 471.75 -0.01 569.44 -0.01"/><polygon class="cls-2" points="765.69 -0.01 659.4 184.09 561.73 184.09 668.01 -0.01 765.69 -0.01"/><polygon class="cls-1" points="966.62 -0.01 860.33 184.09 762.65 184.09 868.94 -0.01 966.62 -0.01"/><polygon class="cls-2" points="1162.88 -0.01 1056.59 184.09 958.92 184.09 1065.2 -0.01 1162.88 -0.01"/><polygon class="cls-1" points="1363.81 -0.01 1257.52 184.09 1159.84 184.09 1266.13 -0.01 1363.81 -0.01"/><polygon class="cls-2" points="1560.07 -0.01 1453.78 184.09 1356.11 184.09 1462.39 -0.01 1560.07 -0.01"/><polygon class="cls-1" points="1761 -0.01 1654.71 184.09 1557.03 184.09 1663.32 -0.01 1761 -0.01"/><polygon class="cls-2" points="1957.26 -0.01 1850.97 184.09 1753.29 184.09 1859.58 -0.01 1957.26 -0.01"/><polygon class="cls-1" points="2158.19 -0.01 2051.9 184.09 1954.22 184.09 2060.51 -0.01 2158.19 -0.01"/><polygon class="cls-2" points="2225.23 54.62 2225.23 184.09 2150.48 184.09 2225.23 54.62"/></svg>